<svg width="25" height="26" viewBox="0 0 25 26" fill="none" xmlns="http://www.w3.org/2000/svg">
<g clip-path="url(#clip0_275_522)">
<path d="M23.7344 5.08748C23.4092 4.73246 22.9652 4.52532 22.4841 4.50423L5.54049 3.76191C5.05938 3.74082 4.59905 3.90835 4.24398 4.23355C3.89036 4.55748 3.68346 4.99926 3.66101 5.47804L3.4473 8.67909L2.09063 8.73274C1.09747 8.77201 0.321414 9.61197 0.360686 10.6051L0.778711 21.1766C0.817983 22.1698 1.65794 22.9458 2.6511 22.9065L19.5978 22.2364C20.591 22.1972 21.367 21.3572 21.3278 20.364L21.2599 18.6492L21.8633 18.6756C21.9142 18.6778 21.9647 18.6779 22.0147 18.6759C22.9406 18.6393 23.7018 17.8957 23.7431 16.9536L24.2061 6.38404C24.2272 5.90297 24.0597 5.44255 23.7344 5.08748V5.08748ZM2.12767 9.6695L19.0743 8.99938C19.551 8.98054 19.9541 9.35298 19.973 9.8296L20.0111 10.7929L1.33554 11.5314L1.29745 10.5681C1.2786 10.0915 1.65104 9.68835 2.12767 9.6695V9.6695ZM1.37258 12.4681L20.0481 11.7296L20.1249 13.6729L1.44943 14.4114L1.37258 12.4681ZM19.5607 21.2997L2.61406 21.9698C2.13743 21.9886 1.73432 21.6162 1.71548 21.1396L1.48647 15.3482L20.162 14.6097L20.391 20.4011C20.4098 20.8777 20.0374 21.2808 19.5607 21.2997ZM23.2695 6.34297L22.8064 16.9126C22.7855 17.3891 22.3808 17.76 21.9043 17.739L21.2228 17.7091L20.9097 9.79256C20.8705 8.7994 20.0305 8.02335 19.0373 8.06262L4.3894 8.64184L4.59678 5.53561C4.59701 5.53203 4.5972 5.52851 4.59734 5.52489C4.61823 5.04833 5.02277 4.6775 5.49947 4.69852L22.4431 5.44084C22.674 5.45095 22.8871 5.55037 23.0432 5.72077C23.1992 5.89118 23.2796 6.11209 23.2695 6.34297V6.34297Z" fill="#C8BCF6"/>
<path d="M18.2568 16.0796L13.749 16.2578C13.4903 16.2681 13.2889 16.4861 13.2992 16.7448L13.4155 19.6857C13.4257 19.9444 13.6437 20.1458 13.9024 20.1356L18.4102 19.9573C18.6689 19.9471 18.8703 19.7291 18.86 19.4704L18.7437 16.5295C18.7335 16.2708 18.5155 16.0694 18.2568 16.0796ZM17.9048 19.0391L14.3337 19.1803L14.2544 17.1761L17.8255 17.0349L17.9048 19.0391Z" fill="#C8BCF6"/>
</g>
<defs>
<clipPath id="clip0_275_522">
<rect width="24" height="24" fill="white" transform="translate(0 1.4834) rotate(-2.26445)"/>
</clipPath>
</defs>
</svg>
