<svg width="24" height="24" viewBox="0 0 24 24" fill="none" xmlns="http://www.w3.org/2000/svg">
<g clip-path="url(#clip0_275_514)">
<path d="M20.0736 9.2C20.156 9.43316 20.3085 9.63516 20.5101 9.77836C20.7117 9.92157 20.9527 9.99897 21.2 10H22.8C23.1183 10 23.4235 9.87357 23.6485 9.64853C23.8736 9.42348 24 9.11826 24 8.8V1.2C24 0.88174 23.8736 0.576516 23.6485 0.351472C23.4235 0.126428 23.1183 0 22.8 0L21.2 0C20.9527 0.00102519 20.7117 0.0784336 20.5101 0.221635C20.3085 0.364837 20.156 0.566837 20.0736 0.8H11.7716C11.2551 0.799586 10.7486 0.941591 10.3076 1.2104L3.85 5.1452C3.59841 5.29698 3.40349 5.52703 3.29508 5.80013C3.18667 6.07324 3.17074 6.37434 3.24974 6.65735C3.32874 6.94037 3.49831 7.18969 3.7325 7.36716C3.96668 7.54463 4.25257 7.64047 4.5464 7.64C4.91 7.64 5.0712 7.52 6.1128 7.1888C5.25247 8.24079 4.69034 9.50446 4.4851 10.8479C4.27986 12.1913 4.43903 13.5651 4.946 14.826C4.60696 14.7969 4.26648 14.7882 3.9264 14.8C3.84397 14.5668 3.69151 14.3648 3.48988 14.2216C3.28825 14.0784 3.0473 14.001 2.8 14H1.2C0.88174 14 0.576516 14.1264 0.351472 14.3515C0.126428 14.5765 0 14.8817 0 15.2L0 22.8C0 23.1183 0.126428 23.4235 0.351472 23.6485C0.576516 23.8736 0.88174 24 1.2 24H2.8C3.0473 23.999 3.28825 23.9216 3.48988 23.7784C3.69151 23.6352 3.84397 23.4332 3.9264 23.2H12.228C12.7445 23.2004 13.251 23.0584 13.692 22.7896L20.1496 18.8548C20.4334 18.6841 20.6441 18.4147 20.7415 18.0982C20.8388 17.7817 20.8159 17.4404 20.6771 17.1397C20.5383 16.8391 20.2934 16.6003 19.9894 16.4691C19.6853 16.3379 19.3436 16.3235 19.0296 16.4288L17.888 16.8104C18.7481 15.7584 19.3101 14.4948 19.5152 13.1515C19.7204 11.8082 19.5613 10.4344 19.0544 9.1736C19.3933 9.20269 19.7336 9.2115 20.0736 9.2V9.2ZM21.2 0.8H22.8C22.9061 0.8 23.0078 0.842143 23.0828 0.917157C23.1579 0.992172 23.2 1.09391 23.2 1.2V8.8C23.2 8.90609 23.1579 9.00783 23.0828 9.08284C23.0078 9.15786 22.9061 9.2 22.8 9.2H21.2C21.0939 9.2 20.9922 9.15786 20.9172 9.08284C20.8421 9.00783 20.8 8.90609 20.8 8.8V1.2C20.8 1.09391 20.8421 0.992172 20.9172 0.917157C20.9922 0.842143 21.0939 0.8 21.2 0.8ZM4.7172 6.8124C4.59025 6.8539 4.45248 6.84732 4.33007 6.79391C4.20766 6.7405 4.10912 6.64398 4.0532 6.5227C3.99727 6.40142 3.98784 6.26381 4.0267 6.13604C4.06557 6.00826 4.15001 5.89921 4.264 5.8296L10.7244 1.8932C11.0398 1.70089 11.4022 1.59943 11.7716 1.6H20V8.4H19.4716C17.6268 8.4 17.2156 6.8 15.3036 6.8H13.3876C12.5228 6.8 11.6488 5.8724 12.1784 5.2H15.0636C15.8572 5.19076 16.6268 4.92593 17.258 4.4448C17.3463 4.38587 17.4075 4.29429 17.4282 4.19021C17.449 4.08612 17.4275 3.97806 17.3686 3.8898C17.3097 3.80154 17.2181 3.7403 17.114 3.71956C17.0099 3.69881 16.9019 3.72027 16.8136 3.7792C16.3142 4.17266 15.6993 4.39081 15.0636 4.4H12.1316C12.002 4.4048 11.8735 4.42522 11.7488 4.4608L4.7172 6.8124ZM2.8 23.2H1.2C1.09391 23.2 0.992172 23.1579 0.917157 23.0828C0.842143 23.0078 0.8 22.9061 0.8 22.8V15.2C0.8 15.0939 0.842143 14.9922 0.917157 14.9172C0.992172 14.8421 1.09391 14.8 1.2 14.8H2.8C2.90609 14.8 3.00783 14.8421 3.08284 14.9172C3.15786 14.9922 3.2 15.0939 3.2 15.2V22.8C3.2 22.9061 3.15786 23.0078 3.08284 23.0828C3.00783 23.1579 2.90609 23.2 2.8 23.2ZM19.2824 17.1876C19.4093 17.1461 19.5471 17.1527 19.6695 17.2061C19.7919 17.2595 19.8905 17.356 19.9464 17.4773C20.0023 17.5986 20.0118 17.7362 19.9729 17.864C19.934 17.9917 19.8496 18.1008 19.7356 18.1704L13.2756 22.1068C12.96 22.299 12.5975 22.4005 12.228 22.4H4V15.6H4.528C6.3724 15.6 6.7832 17.2 8.696 17.2H10.612C11.4752 17.2 12.3508 18.1276 11.8212 18.8H8.936C8.14239 18.8091 7.3729 19.0741 6.742 19.5556C6.65658 19.6156 6.59802 19.7067 6.57884 19.8094C6.55966 19.912 6.58137 20.0181 6.63933 20.1049C6.6973 20.1918 6.78693 20.2525 6.88907 20.2741C6.99122 20.2958 7.09778 20.2767 7.186 20.2208C7.68535 19.8273 8.30033 19.6092 8.936 19.6H11.868C11.9976 19.5951 12.1261 19.5747 12.2508 19.5392L19.2824 17.1876ZM16.1324 17.3976L12.782 18.5176C12.8968 17.5576 11.9268 16.3976 10.612 16.3976H8.696C7.5476 16.3976 6.8892 15.466 5.938 15.0776C5.21583 13.6622 5.01341 12.0382 5.36605 10.4888C5.71868 8.93946 6.604 7.56304 7.8676 6.5996L11.2176 5.4796C11.1028 6.4396 12.0732 7.5996 13.3876 7.5996H15.3036C16.4876 7.5996 17.032 8.4996 18.0636 8.9196C18.7857 10.3352 18.9879 11.9593 18.635 13.5087C18.282 15.0581 17.3963 16.4344 16.1324 17.3976V17.3976Z" fill="#C8BCF6"/>
<path d="M10.6 6.56475C10.5663 6.46418 10.494 6.38114 10.399 6.33388C10.304 6.28663 10.1942 6.27902 10.0936 6.31275C9.31038 6.57532 8.58982 6.9968 7.97705 7.55077C7.36428 8.10474 6.87251 8.77928 6.53252 9.53213C6.19254 10.285 6.01168 11.0999 6.00126 11.9259C5.99085 12.7519 6.15111 13.5712 6.472 14.3323C6.51348 14.43 6.59206 14.5072 6.69044 14.5469C6.78882 14.5866 6.89895 14.5856 6.9966 14.5441C7.09425 14.5027 7.17143 14.4241 7.21115 14.3257C7.25087 14.2273 7.24988 14.1172 7.2084 14.0195C6.93061 13.36 6.79197 12.6501 6.80116 11.9345C6.81035 11.2188 6.96718 10.5128 7.26181 9.86053C7.55645 9.20829 7.98256 8.62389 8.51347 8.14392C9.04437 7.66394 9.66864 7.29873 10.3472 7.07115C10.3971 7.05452 10.4432 7.02823 10.4829 6.99377C10.5226 6.95932 10.5551 6.91738 10.5786 6.87035C10.602 6.82332 10.616 6.77212 10.6197 6.71968C10.6234 6.66725 10.6167 6.6146 10.6 6.56475V6.56475Z" fill="#C8BCF6"/>
<path d="M16.7916 9.98027C17.0694 10.6399 17.208 11.3497 17.1988 12.0653C17.1897 12.781 17.0328 13.487 16.7382 14.1393C16.4436 14.7915 16.0174 15.3759 15.4865 15.8559C14.9556 16.3359 14.3314 16.7011 13.6528 16.9287C13.552 16.9624 13.4688 17.0348 13.4214 17.1299C13.374 17.225 13.3663 17.3351 13.4 17.4359C13.4337 17.5367 13.5061 17.6199 13.6012 17.6673C13.6964 17.7147 13.8064 17.7224 13.9072 17.6887C14.6905 17.426 15.4112 17.0044 16.024 16.4503C16.6369 15.8962 17.1286 15.2215 17.4686 14.4685C17.8085 13.7154 17.9892 12.9003 17.9995 12.0742C18.0097 11.248 17.8492 10.4287 17.528 9.66747C17.4865 9.56982 17.408 9.49264 17.3096 9.45292C17.2112 9.4132 17.1011 9.41419 17.0034 9.45567C16.9058 9.49715 16.8286 9.57572 16.7889 9.6741C16.7491 9.77248 16.7501 9.88262 16.7916 9.98027V9.98027Z" fill="#C8BCF6"/>
<path d="M14.4 13.4C14.4 12.4932 13.5484 11.7652 12.4 11.626V9.6372C13.08 9.752 13.6 10.1444 13.6 10.6C13.6 10.7061 13.6421 10.8078 13.7172 10.8828C13.7922 10.9579 13.8939 11 14 11C14.1061 11 14.2078 10.9579 14.2828 10.8828C14.3579 10.8078 14.4 10.7061 14.4 10.6C14.4 9.6932 13.5484 8.9652 12.4 8.826V8.4C12.4 8.29391 12.3579 8.19217 12.2828 8.11716C12.2078 8.04214 12.1061 8 12 8C11.8939 8 11.7922 8.04214 11.7172 8.11716C11.6421 8.19217 11.6 8.29391 11.6 8.4V8.826C10.4516 8.9652 9.6 9.6932 9.6 10.6C9.6 11.5068 10.4516 12.2348 11.6 12.374V14.3628C10.92 14.248 10.4 13.8556 10.4 13.4C10.4 13.2939 10.3579 13.1922 10.2828 13.1172C10.2078 13.0421 10.1061 13 10 13C9.89391 13 9.79217 13.0421 9.71716 13.1172C9.64214 13.1922 9.6 13.2939 9.6 13.4C9.6 14.3068 10.4516 15.0348 11.6 15.174V15.6C11.6 15.7061 11.6421 15.8078 11.7172 15.8828C11.7922 15.9579 11.8939 16 12 16C12.1061 16 12.2078 15.9579 12.2828 15.8828C12.3579 15.8078 12.4 15.7061 12.4 15.6V15.174C13.5484 15.0348 14.4 14.3068 14.4 13.4ZM10.4 10.6C10.4 10.1444 10.92 9.752 11.6 9.6372V11.5628C10.92 11.448 10.4 11.0556 10.4 10.6ZM12.4 14.3628V12.4372C13.08 12.552 13.6 12.9444 13.6 13.4C13.6 13.8556 13.08 14.248 12.4 14.3628Z" fill="#C8BCF6"/>
</g>
<defs>
<clipPath id="clip0_275_514">
<rect width="24" height="24" fill="white"/>
</clipPath>
</defs>
</svg>
