<svg width="19" height="20" viewBox="0 0 19 20" fill="none" xmlns="http://www.w3.org/2000/svg">
<g clip-path="url(#clip0_275_510)">
<path d="M7.52083 6.83333H1.1875C0.532792 6.83333 0 6.30054 0 5.64583V1.6875C0 1.03279 0.532792 0.5 1.1875 0.5H7.52083C8.17554 0.5 8.70833 1.03279 8.70833 1.6875V5.64583C8.70833 6.30054 8.17554 6.83333 7.52083 6.83333ZM1.1875 1.29167C0.969792 1.29167 0.791667 1.469 0.791667 1.6875V5.64583C0.791667 5.86433 0.969792 6.04167 1.1875 6.04167H7.52083C7.73854 6.04167 7.91667 5.86433 7.91667 5.64583V1.6875C7.91667 1.469 7.73854 1.29167 7.52083 1.29167H1.1875Z" fill="#C8BCF6"/>
<path d="M7.52083 19.5003H1.1875C0.532792 19.5003 0 18.9675 0 18.3128V9.60449C0 8.94978 0.532792 8.41699 1.1875 8.41699H7.52083C8.17554 8.41699 8.70833 8.94978 8.70833 9.60449V18.3128C8.70833 18.9675 8.17554 19.5003 7.52083 19.5003ZM1.1875 9.20866C0.969792 9.20866 0.791667 9.38599 0.791667 9.60449V18.3128C0.791667 18.5313 0.969792 18.7087 1.1875 18.7087H7.52083C7.73854 18.7087 7.91667 18.5313 7.91667 18.3128V9.60449C7.91667 9.38599 7.73854 9.20866 7.52083 9.20866H1.1875Z" fill="#C8BCF6"/>
<path d="M17.8125 19.5003H11.4792C10.8245 19.5003 10.2917 18.9675 10.2917 18.3128V14.3545C10.2917 13.6998 10.8245 13.167 11.4792 13.167H17.8125C18.4672 13.167 19 13.6998 19 14.3545V18.3128C19 18.9675 18.4672 19.5003 17.8125 19.5003ZM11.4792 13.9587C11.2615 13.9587 11.0833 14.136 11.0833 14.3545V18.3128C11.0833 18.5313 11.2615 18.7087 11.4792 18.7087H17.8125C18.0302 18.7087 18.2083 18.5313 18.2083 18.3128V14.3545C18.2083 14.136 18.0302 13.9587 17.8125 13.9587H11.4792Z" fill="#C8BCF6"/>
<path d="M17.8125 11.5833H11.4792C10.8245 11.5833 10.2917 11.0505 10.2917 10.3958V1.6875C10.2917 1.03279 10.8245 0.5 11.4792 0.5H17.8125C18.4672 0.5 19 1.03279 19 1.6875V10.3958C19 11.0505 18.4672 11.5833 17.8125 11.5833ZM11.4792 1.29167C11.2615 1.29167 11.0833 1.469 11.0833 1.6875V10.3958C11.0833 10.6143 11.2615 10.7917 11.4792 10.7917H17.8125C18.0302 10.7917 18.2083 10.6143 18.2083 10.3958V1.6875C18.2083 1.469 18.0302 1.29167 17.8125 1.29167H11.4792Z" fill="#C8BCF6"/>
</g>
<defs>
<clipPath id="clip0_275_510">
<rect width="19" height="19" fill="white" transform="translate(0 0.5)"/>
</clipPath>
</defs>
</svg>
