<svg width="600" height="600" viewBox="0 0 600 600" fill="none" xmlns="http://www.w3.org/2000/svg">
<circle cx="300" cy="300" r="280" fill="url(#paint0_linear_13_66)" stroke="#073E5C" stroke-width="40"/>
<circle cx="300" cy="300" r="287.5" fill="url(#paint1_linear_13_66)" stroke="#073E5C" stroke-width="25"/>
<path d="M436.35 437.741C362.207 517.638 252.044 504.69 206.23 488.229C242.314 491.426 330.13 478.614 392.722 401.786C470.961 305.751 456.257 206.517 431.798 132.037C502.663 204.103 529.03 337.87 436.35 437.741Z" fill="#CCCCCC"/>
<path d="M427.892 384.109C256.931 594.443 82.2668 468.425 73.1824 285.07C111.701 430.996 202.117 418.734 242.511 394.363C181.419 295.382 217.402 159.809 292.448 105.253C317.352 87.1489 350.622 83.0464 379.427 93.9182C488.761 135.183 491.142 306.292 427.892 384.109Z" fill="#E6E6E6"/>
<path d="M418.657 297.166C353.93 452.468 199.526 433.585 189.836 429.276C278.267 435.17 326.26 353.487 339.922 311.812C343.063 302.233 343.635 292.104 343.635 282.023L343.635 255.544C343.635 240.06 346.663 224.305 355.712 211.74C401.121 148.688 459.192 199.911 418.657 297.166Z" fill="#073E5C" stroke="#063650"/>
<path d="M333.29 403.164C256.178 371.025 265.554 294.359 267.694 289.548C265.198 327.001 299.11 352.07 322.966 363.303C334.971 368.956 348.464 369.152 361.657 367.722C376.258 366.14 393.405 366.91 401.322 379.28C414.987 400.628 380.964 423.034 333.29 403.164Z" fill="#073E5C" stroke="#063650"/>
<path d="M370.514 138.848C389.102 157.436 364.497 172.963 349.826 187.633C335.155 202.304 317.674 217.34 299.085 198.752C280.497 180.163 287.704 157.962 302.375 143.291C317.046 128.62 351.925 120.26 370.514 138.848Z" fill="#073E5C"/>
<defs>
<linearGradient id="paint0_linear_13_66" x1="136" y1="45" x2="485" y2="600" gradientUnits="userSpaceOnUse">
<stop stop-color="#FFD109"/>
<stop offset="1" stop-color="#D38801"/>
</linearGradient>
<linearGradient id="paint1_linear_13_66" x1="136" y1="45" x2="485" y2="600" gradientUnits="userSpaceOnUse">
<stop stop-color="#FFD109"/>
<stop offset="1" stop-color="#D38801"/>
</linearGradient>
</defs>
</svg>
