<svg width="24" height="24" viewBox="0 0 24 24" fill="none" xmlns="http://www.w3.org/2000/svg">
<g clip-path="url(#clip0_275_526)">
<path d="M21.8324 1.0361C21.7498 0.985133 21.6546 0.958008 21.5576 0.958008H5.89179C4.54497 0.958008 3.44926 2.04303 3.44926 3.3728L3.3572 16.8634H0.526071C0.235499 16.8634 0 17.0989 0 17.3895V19.8199C0.00184947 21.6047 1.44813 23.0509 3.23287 23.053C3.26904 23.053 3.30541 23.0493 3.34096 23.0419H16.4116C16.4895 23.0474 16.568 23.0511 16.6471 23.0511C18.4596 23.0479 19.9272 21.5781 19.9278 19.7657V11.8795H23.4739C23.7644 11.8795 23.9999 11.644 23.9999 11.3535V3.54418C23.9936 2.28839 23.074 1.22413 21.8324 1.0361V1.0361ZM1.05214 19.8201V17.9158H13.3663V19.7659C13.3657 20.5901 13.6758 21.3842 14.235 21.9898H3.16095C3.13608 21.99 3.11142 21.9918 3.08697 21.9955C1.94256 21.9176 1.05358 20.9672 1.05214 19.8201V19.8201ZM18.8757 3.54418V19.7657C18.8747 20.3538 18.641 20.9173 18.2257 21.3334C17.8281 21.7413 17.2878 21.9795 16.7186 21.9976C16.6902 21.9926 16.6615 21.9902 16.6325 21.99H16.4475C15.3017 21.8771 14.4261 20.9175 14.4185 19.7661V17.3895C14.4185 17.0991 14.183 16.8634 13.8924 16.8634H4.40934L4.5014 3.3765C4.50901 2.61575 5.13084 2.0044 5.89179 2.01015H19.3983C19.0594 2.44971 18.8755 2.98914 18.8757 3.54418V3.54418ZM22.9478 10.8274H19.9278V3.54418C19.9416 2.71994 20.6136 2.05926 21.4378 2.05926C22.2621 2.05926 22.934 2.71994 22.9478 3.54418V10.8274Z" fill="#C8BCF6"/>
<path d="M6.75405 6.65761H11.7365C12.0271 6.65761 12.2626 6.42211 12.2626 6.13154C12.2626 5.84097 12.0271 5.60547 11.7365 5.60547H6.75405C6.46348 5.60547 6.22798 5.84097 6.22798 6.13154C6.22798 6.42211 6.46348 6.65761 6.75405 6.65761Z" fill="#C8BCF6"/>
<path d="M16.0483 9.36621H6.75405C6.46348 9.36621 6.22798 9.60171 6.22798 9.89228C6.22798 10.1826 6.46348 10.4184 6.75405 10.4184H16.0483C16.3388 10.4184 16.5743 10.1826 16.5743 9.89228C16.5743 9.60171 16.3388 9.36621 16.0483 9.36621Z" fill="#C8BCF6"/>
<path d="M16.0483 13.1279H6.75405C6.46348 13.1279 6.22798 13.3636 6.22798 13.654C6.22798 13.9446 6.46348 14.1801 6.75405 14.1801H16.0483C16.3388 14.1801 16.5743 13.9446 16.5743 13.654C16.5743 13.3636 16.3388 13.1279 16.0483 13.1279Z" fill="#C8BCF6"/>
</g>
<defs>
<clipPath id="clip0_275_526">
<rect width="24" height="24" fill="white"/>
</clipPath>
</defs>
</svg>
