<svg width="20" height="20" viewBox="0 0 20 20" fill="none" xmlns="http://www.w3.org/2000/svg">
<g clip-path="url(#clip0_275_518)">
<path fill-rule="evenodd" clip-rule="evenodd" d="M18.0389 15.9488C19.2712 14.2864 20 12.2283 20 10C20 4.47711 15.5228 0 10 0C4.47711 0 0 4.47711 0 10C0 15.5228 4.47711 20 10 20C12.8976 20 15.5073 18.7676 17.3337 16.7984C17.5838 16.5286 17.8194 16.245 18.0389 15.9488V15.9488ZM17.4844 15C18.4417 13.5699 18.9999 11.8501 18.9999 10C18.9999 5.02944 14.9706 0.999979 9.99989 0.999979C5.02944 0.999979 0.999979 5.02944 0.999979 10C0.999979 11.8502 1.55822 13.5699 2.51556 15C3.72333 13.1957 5.56626 11.8524 7.72451 11.2902C6.68242 10.5681 5.99998 9.36377 5.99998 7.99994C5.99998 5.79082 7.79089 3.99992 10 3.99992C12.2091 3.99992 14 5.79082 14 7.99994C14 9.36367 13.3175 10.5681 12.2755 11.2901C14.4336 11.8524 16.2767 13.1956 17.4844 15ZM16.8403 15.8492C15.4369 13.5414 12.8985 12 10.0001 12C7.10158 12 4.56312 13.5414 3.1597 15.8493C4.81037 17.7778 7.2624 19 10 19C12.7376 19 15.1896 17.7777 16.8403 15.8492ZM10 11C11.6569 11 13 9.65693 13 7.99994C13 6.34305 11.657 4.99989 10 4.99989C8.34301 4.99989 6.99996 6.34315 6.99996 8.00004C6.99996 9.65693 8.34311 11 10 11Z" fill="#C8BCF6"/>
</g>
<defs>
<clipPath id="clip0_275_518">
<rect width="20" height="20" fill="white"/>
</clipPath>
</defs>
</svg>
